<?xml version="1.0" encoding="utf-8"?>
<!-- Generator: Adobe Illustrator 16.0.0, SVG Export Plug-In . SVG Version: 6.00 Build 0)  -->
<!DOCTYPE svg PUBLIC "-//W3C//DTD SVG 1.1//EN" "http://www.w3.org/Graphics/SVG/1.1/DTD/svg11.dtd">
<svg version="1.1" id="Layer_1" xmlns="http://www.w3.org/2000/svg" xmlns:xlink="http://www.w3.org/1999/xlink" x="0px" y="0px"
	 width="200px" height="80px" viewBox="0 0 200 80" enable-background="new 0 0 200 80" xml:space="preserve">
<title>ithemba_logo</title>
<desc>Created with Sketch.</desc>
<path id="Shape" fill="#B5121B" d="M51.959,6.827c0,3.408-2.761,6.173-6.169,6.173c-3.412,0-6.176-2.765-6.176-6.173
	c0-3.409,2.764-6.171,6.176-6.171C49.198,0.656,51.959,3.418,51.959,6.827L51.959,6.827z M79.771,44.207
	c0,8.162-17.664,14.783-39.458,14.783c-21.797,0-39.463-6.621-39.463-14.783c0-8.16,17.666-14.784,39.463-14.784
	C62.106,29.423,79.771,36.046,79.771,44.207L79.771,44.207z M77.379,44.318c0-6.663-14.841-12.068-33.155-12.068
	c-18.313,0-31.853,5.405-31.853,12.068c0,6.664,13.541,12.064,31.853,12.064C62.539,56.383,77.379,50.982,77.379,44.318
	L77.379,44.318z M198.867,62.67H57.981v1.741h140.886V62.67z"/>
<path id="Shape_1_" d="M32.029,44.861c0,3.408-2.769,6.172-6.176,6.172c-3.409,0-6.169-2.764-6.169-6.172
	c0-3.413,2.76-6.172,6.169-6.172C29.261,38.689,32.029,41.448,32.029,44.861L32.029,44.861z M86.875,27.223h-5.369v33.404h5.369
	V27.223z M89.336,35.99h4.824v24.637h5.37V35.99h5.412v-8.767H89.335L89.336,35.99L89.336,35.99z M112.008,60.627V47.684h5.079
	v12.943h5.376V27.223h-5.376v12.035h-5.079V27.223h-5.366v33.404H112.008z M139.445,60.627v-6.938h-8.311v-7.013h7.623v-6.881
	h-7.623v-4.777h7.994v-7.794h-13.367v33.404H139.445z M146.227,60.627V35.944l3.121,24.683h3.741l3.501-24.825l0.07,24.825h3.941
	V27.223h-6.493l-2.894,20.831l-2.888-20.831h-6.489v33.404H146.227z M171.594,60.627c4.258,0,7.061-2.599,7.061-10.067
	c0-3.621-0.957-6.73-2.733-7.655c1.049-1.343,2.142-3.854,2.142-7.285c0-6.635-2.939-8.397-6.625-8.397h-7.833v33.404H171.594z
	 M170.863,34.032c1.141,0,2.533,0.842,2.533,3.438c0,1.947-1.115,3.117-2.188,3.117h-2.232v-6.555L170.863,34.032L170.863,34.032z
	 M170.684,46.661c1.707,0,3.265,1.22,3.265,4.14c0,2.509-1.306,3.162-2.63,3.162h-2.342v-7.301L170.684,46.661L170.684,46.661z
	 M184.806,60.627l0.993-5.154h5.355l1.074,5.154h4.917l-5.878-33.404h-5.945l-5.877,33.404H184.806z M190.22,48.326h-3.394
	l1.664-11.033L190.22,48.326z M42.091,37.938c1.62,21.212-3.704,40.25-3.704,40.25s9.136-13.581,13.579-30.617
	c4.44-17.039,1.972-32.846,1.972-32.846H37.894C37.894,14.725,40.784,20.794,42.091,37.938L42.091,37.938z"/>
<path id="Shape_2_" fill="#B5121B" d="M59.85,76.97h-1.097l0.803-3.054l-1.486-5.27h1.168l0.873,3.383
	c0.059,0.199,0.129,0.472,0.236,0.873c0.307-0.412,0.401-0.555,0.648-0.873l2.524-3.383h1.167l-4.044,5.27L59.85,76.97z"/>
<path id="Shape_3_" fill="#B5121B" d="M65.018,77.077c-1.345,0-2.264-0.694-2.264-2.052c0-0.885,0.33-2.254,1.05-3.09
	c0.448-0.519,1.156-0.979,2.299-0.979c1.144,0,1.651,0.613,1.816,0.872c0.225,0.343,0.284,0.767,0.284,1.181
	c0,0.354-0.048,0.695-0.13,1.039C67.647,76.074,66.691,77.077,65.018,77.077 M67.224,72.832c0-1.108-0.86-1.262-1.215-1.262
	c-0.213,0-0.861,0.035-1.403,0.719c-0.589,0.756-0.825,2.219-0.825,2.807c0,0.343,0.047,0.873,0.565,1.18
	c0.237,0.141,0.508,0.178,0.708,0.178c1.179,0,1.581-1.074,1.735-1.511c0.129-0.343,0.223-0.685,0.305-1.026
	C67.163,73.563,67.224,73.197,67.224,72.832"/>
<path id="Shape_4_" fill="#B5121B" d="M73.425,76.97h-1.014l0.178-0.673c-0.579,0.473-1.286,0.779-2.028,0.779
	c-1.274,0-1.392-0.909-1.392-1.238c0-0.354,0.094-0.742,0.188-1.096l0.943-3.668h1.002l-0.99,3.82
	c-0.059,0.236-0.118,0.46-0.118,0.707c0,0.578,0.39,0.803,0.896,0.803c0.589,0,1.167-0.318,1.462-0.672
	c0.248-0.283,0.342-0.66,0.459-1.084l0.931-3.574h1.003L73.425,76.97z"/>
<path id="Shape_5_" fill="#B5121B" d="M76.243,76.97h-1.001l1.52-5.896h1.014l-0.271,0.92c0.308-0.365,0.825-0.991,1.604-0.991
	c0.248,0,0.366,0.06,0.496,0.118l-0.284,0.885c-0.165-0.104-0.376-0.234-0.659-0.234c-0.202,0-0.707,0.058-1.144,0.812
	c-0.225,0.389-0.331,0.767-0.425,1.133L76.243,76.97z"/>
<path id="Shape_6_" fill="#B5121B" d="M87.34,76.97h-1.002l0.86-3.324c0.118-0.437,0.248-0.92,0.248-1.25
	c0-0.708-0.614-0.778-0.861-0.778c-0.484,0-1.038,0.248-1.379,0.578c-0.354,0.33-0.413,0.566-0.601,1.285l-0.897,3.489h-1.013
	l2.157-8.337h1.002l-0.801,3.113c0.353-0.26,1.048-0.789,2.075-0.789c0.672,0,1.355,0.307,1.355,1.25
	c0,0.375-0.118,0.836-0.271,1.401L87.34,76.97z"/>
<path id="Shape_7_" fill="#B5121B" d="M91.751,77.077c-1.345,0-2.264-0.694-2.264-2.052c0-0.885,0.33-2.254,1.05-3.09
	c0.447-0.519,1.156-0.979,2.298-0.979c1.145,0,1.652,0.613,1.817,0.872c0.224,0.343,0.283,0.767,0.283,1.181
	c0,0.354-0.047,0.695-0.13,1.039C94.379,76.074,93.424,77.077,91.751,77.077 M93.956,72.832c0-1.108-0.86-1.262-1.214-1.262
	c-0.213,0-0.861,0.035-1.404,0.719c-0.59,0.756-0.826,2.219-0.826,2.807c0,0.343,0.048,0.873,0.566,1.18
	c0.236,0.141,0.508,0.178,0.709,0.178c1.178,0,1.58-1.074,1.733-1.511c0.129-0.343,0.223-0.685,0.305-1.026
	C93.896,73.563,93.956,73.197,93.956,72.832"/>
<path id="Shape_8_" fill="#B5121B" d="M103.39,76.97h-1.003l0.932-3.607c0.071-0.261,0.177-0.695,0.177-0.979
	c0-0.437-0.282-0.742-0.825-0.742c-0.423,0-0.885,0.199-1.201,0.53c-0.318,0.319-0.413,0.626-0.638,1.45L99.97,76.97h-1.002
	l0.909-3.515c0.094-0.376,0.2-0.789,0.2-1.049c0-0.354-0.187-0.777-0.801-0.777c-0.402,0-0.85,0.199-1.18,0.508
	c-0.377,0.328-0.447,0.61-0.625,1.295l-0.907,3.538h-1.014l1.521-5.896h1.013l-0.177,0.684c0.519-0.471,1.179-0.789,1.887-0.789
	c0.568,0,1.133,0.223,1.297,0.92c0.201-0.188,0.4-0.354,0.743-0.543c0.424-0.235,0.933-0.376,1.368-0.376
	c0.672,0,1.332,0.342,1.332,1.227c0,0.27-0.059,0.565-0.2,1.108L103.39,76.97z"/>
<path id="Shape_9_" fill="#B5121B" d="M110.417,75.236c-0.104,0.271-0.259,0.66-0.601,1.027c-0.662,0.719-1.521,0.813-2.076,0.813
	c-0.849,0-1.344-0.26-1.615-0.495c-0.578-0.495-0.603-1.191-0.603-1.497c0-0.943,0.438-2.512,1.157-3.289
	c0.672-0.732,1.51-0.826,2.039-0.826c1.039,0,2.074,0.424,2.074,1.875c0,0.27-0.035,0.719-0.188,1.237h-3.938
	c-0.059,0.188-0.153,0.579-0.153,1.026c0,1.096,0.743,1.344,1.297,1.344c1.168,0,1.486-0.908,1.592-1.215H110.417L110.417,75.236z
	 M109.758,73.422c0.069-0.248,0.104-0.449,0.104-0.709c0-0.789-0.507-1.166-1.12-1.166c-1.191,0-1.663,1.202-1.886,1.875H109.758
	L109.758,73.422z"/>
<path id="Shape_10_" fill="#B5121B" d="M119.415,76.97h-0.686c-0.425-0.013-0.565-0.118-0.542-0.612
	c-0.424,0.459-1.049,0.72-1.699,0.72c-0.412,0-0.836-0.106-1.131-0.401c-0.342-0.318-0.39-0.708-0.39-1.025
	c0-0.637,0.271-1.193,0.792-1.546c0.576-0.401,1.391-0.495,3.183-0.694l0.106-0.378c0.047-0.2,0.105-0.425,0.105-0.636
	c0-0.555-0.377-0.85-1.014-0.85c-0.236,0-0.686,0.047-1.051,0.4c-0.27,0.271-0.341,0.556-0.423,0.838h-0.991
	c0.07-0.307,0.237-0.955,0.873-1.392c0.412-0.283,1.014-0.424,1.662-0.424c0.874,0,1.945,0.283,1.945,1.367
	c0,0.235-0.047,0.448-0.105,0.685l-0.73,2.854c-0.07,0.294-0.105,0.437-0.105,0.576c0,0.307,0.166,0.354,0.248,0.378L119.415,76.97z
	 M118.813,73.963c-0.66,0.049-1.651,0.178-2.109,0.426c-0.461,0.247-0.696,0.648-0.696,1.201c0,0.438,0.247,0.849,0.848,0.849
	c0.507,0,1.002-0.294,1.237-0.518c0.248-0.235,0.295-0.413,0.461-0.979L118.813,73.963z"/>
<path id="Shape_11_" fill="#B5121B" d="M126.289,76.97h-1.086l-0.047-3.809c-0.011-0.364-0.011-0.448,0-0.778
	c-0.188,0.414-0.212,0.449-0.399,0.814l-2.042,3.772h-1.083l-0.202-5.896h1.002l0.072,4.387v0.541
	c0.021-0.059,0.164-0.354,0.199-0.425l2.382-4.503h0.943l0.023,4.246c0,0.294,0,0.399-0.011,0.683
	c0.117-0.258,0.152-0.329,0.34-0.683l2.206-4.246h0.908L126.289,76.97z"/>
<path id="Shape_12_" fill="#B5121B" d="M133.742,76.97h-0.684c-0.426-0.013-0.568-0.118-0.543-0.612
	c-0.424,0.459-1.05,0.72-1.699,0.72c-0.412,0-0.837-0.106-1.131-0.401c-0.342-0.318-0.389-0.708-0.389-1.025
	c0-0.637,0.271-1.193,0.79-1.546c0.577-0.401,1.393-0.495,3.183-0.694l0.107-0.378c0.047-0.2,0.104-0.425,0.104-0.636
	c0-0.555-0.375-0.85-1.012-0.85c-0.236,0-0.686,0.047-1.05,0.4c-0.271,0.271-0.342,0.556-0.425,0.838h-0.99
	c0.07-0.307,0.236-0.955,0.873-1.392c0.412-0.283,1.014-0.424,1.662-0.424c0.874,0,1.945,0.283,1.945,1.367
	c0,0.235-0.047,0.448-0.105,0.685l-0.73,2.854c-0.07,0.294-0.107,0.437-0.107,0.576c0,0.307,0.166,0.354,0.248,0.378L133.742,76.97z
	 M133.141,73.963c-0.66,0.049-1.65,0.178-2.111,0.426c-0.459,0.247-0.696,0.648-0.696,1.201c0,0.438,0.249,0.849,0.851,0.849
	c0.506,0,1.002-0.294,1.237-0.518c0.248-0.235,0.294-0.413,0.46-0.979L133.141,73.963z"/>
<path id="Shape_13_" fill="#B5121B" d="M140.64,71.063l-3.372,6.285c-0.46,0.791-0.531,0.932-0.708,1.168
	c-0.2,0.283-0.685,0.896-1.58,0.896c-0.202,0-0.542-0.036-0.944-0.189l0.236-0.754c0.223,0.095,0.459,0.188,0.721,0.188
	c0.188,0,0.376-0.059,0.506-0.141c0.213-0.131,0.766-0.743,0.766-1.51c0-0.213-0.034-0.578-0.059-0.838l-0.483-5.105h1.015
	l0.305,4.186c0.048,0.695,0.048,0.768,0.037,1.004c0.105-0.297,0.141-0.355,0.424-0.944l2.171-4.245H140.64L140.64,71.063z"/>
<path id="Shape_14_" fill="#B5121B" d="M145.215,76.97h-1.014l1.38-5.329h-0.931l0.141-0.566h0.931l0.225-0.873
	c0.175-0.625,0.472-1.662,1.839-1.662c0.52,0,0.789,0.141,1.002,0.248l-0.166,0.624c-0.188-0.083-0.412-0.188-0.66-0.188
	c-0.73,0-0.92,0.695-1.072,1.298l-0.143,0.553h1.109l-0.141,0.566h-1.121L145.215,76.97z"/>
<path id="Shape_15_" fill="#B5121B" d="M148.492,76.97h-1.002l1.521-5.896h1.014l-0.271,0.92c0.307-0.365,0.824-0.991,1.603-0.991
	c0.247,0,0.365,0.06,0.494,0.118l-0.283,0.885c-0.164-0.104-0.376-0.234-0.66-0.234c-0.199,0-0.707,0.058-1.143,0.812
	c-0.225,0.389-0.33,0.767-0.426,1.133L148.492,76.97z"/>
<path id="Shape_16_" fill="#B5121B" d="M154.094,77.077c-1.344,0-2.264-0.694-2.264-2.052c0-0.885,0.33-2.254,1.051-3.09
	c0.447-0.519,1.154-0.979,2.299-0.979c1.143,0,1.649,0.613,1.815,0.872c0.225,0.343,0.283,0.767,0.283,1.181
	c0,0.354-0.048,0.695-0.13,1.039C156.724,76.074,155.768,77.077,154.094,77.077 M156.299,72.832c0-1.108-0.86-1.262-1.214-1.262
	c-0.214,0-0.861,0.035-1.403,0.719c-0.59,0.756-0.826,2.219-0.826,2.807c0,0.343,0.047,0.873,0.567,1.18
	c0.235,0.141,0.507,0.178,0.706,0.178c1.181,0,1.582-1.074,1.734-1.511c0.131-0.343,0.224-0.685,0.308-1.026
	C156.24,73.563,156.299,73.197,156.299,72.832"/>
<path id="Shape_17_" fill="#B5121B" d="M165.732,76.97h-1.002l0.931-3.607c0.071-0.261,0.178-0.695,0.178-0.979
	c0-0.437-0.282-0.742-0.825-0.742c-0.424,0-0.885,0.199-1.201,0.53c-0.319,0.319-0.414,0.626-0.639,1.45l-0.859,3.349h-1.002
	l0.908-3.515c0.094-0.376,0.2-0.789,0.2-1.049c0-0.354-0.188-0.777-0.802-0.777c-0.401,0-0.85,0.199-1.181,0.508
	c-0.377,0.328-0.448,0.61-0.624,1.295l-0.908,3.538h-1.014l1.521-5.896h1.015l-0.178,0.684c0.52-0.471,1.178-0.789,1.887-0.789
	c0.566,0,1.133,0.223,1.297,0.92c0.2-0.188,0.401-0.354,0.742-0.543c0.426-0.235,0.933-0.376,1.369-0.376
	c0.672,0,1.332,0.342,1.332,1.227c0,0.27-0.061,0.565-0.199,1.108L165.732,76.97z"/>
<path id="Shape_18_" fill="#B5121B" d="M175.638,76.97h-1.002l0.86-3.324c0.118-0.437,0.248-0.92,0.248-1.25
	c0-0.708-0.613-0.778-0.86-0.778c-0.483,0-1.038,0.248-1.379,0.578c-0.354,0.33-0.413,0.566-0.603,1.285l-0.896,3.489h-1.014
	l2.157-8.337h1.002l-0.803,3.113c0.354-0.26,1.051-0.789,2.076-0.789c0.672,0,1.356,0.307,1.356,1.25
	c0,0.375-0.118,0.836-0.272,1.401L175.638,76.97z"/>
<path id="Shape_19_" fill="#B5121B" d="M180.049,77.077c-1.346,0-2.264-0.694-2.264-2.052c0-0.885,0.33-2.254,1.049-3.09
	c0.448-0.519,1.156-0.979,2.3-0.979s1.65,0.613,1.815,0.872c0.225,0.343,0.283,0.767,0.283,1.181c0,0.354-0.047,0.695-0.131,1.039
	C182.678,76.074,181.722,77.077,180.049,77.077 M182.253,72.832c0-1.108-0.86-1.262-1.214-1.262c-0.215,0-0.861,0.035-1.403,0.719
	c-0.591,0.756-0.826,2.219-0.826,2.807c0,0.343,0.047,0.873,0.565,1.18c0.235,0.141,0.508,0.178,0.708,0.178
	c1.179,0,1.581-1.074,1.733-1.511c0.131-0.343,0.225-0.685,0.307-1.026C182.193,73.563,182.253,73.197,182.253,72.832"/>
<path id="Shape_20_" fill="#B5121B" d="M191.688,76.97h-1.004l0.932-3.607c0.072-0.261,0.178-0.695,0.178-0.979
	c0-0.437-0.283-0.742-0.825-0.742c-0.425,0-0.885,0.199-1.202,0.53c-0.318,0.319-0.414,0.626-0.637,1.45l-0.861,3.349h-1.004
	l0.909-3.515c0.095-0.376,0.2-0.789,0.2-1.049c0-0.354-0.189-0.777-0.803-0.777c-0.4,0-0.848,0.199-1.179,0.508
	c-0.378,0.328-0.448,0.61-0.626,1.295l-0.907,3.538h-1.013l1.521-5.896h1.014l-0.18,0.684c0.521-0.471,1.181-0.789,1.889-0.789
	c0.566,0,1.133,0.223,1.297,0.92c0.201-0.188,0.4-0.354,0.744-0.543c0.423-0.235,0.931-0.376,1.367-0.376
	c0.672,0,1.332,0.342,1.332,1.227c0,0.27-0.059,0.565-0.199,1.108L191.688,76.97z"/>
<path id="Shape_21_" fill="#B5121B" d="M198.715,75.236c-0.106,0.271-0.26,0.66-0.602,1.027c-0.66,0.719-1.521,0.813-2.076,0.813
	c-0.848,0-1.343-0.26-1.614-0.495c-0.579-0.495-0.603-1.191-0.603-1.497c0-0.943,0.437-2.512,1.156-3.289
	c0.672-0.732,1.51-0.826,2.041-0.826c1.037,0,2.074,0.424,2.074,1.875c0,0.27-0.035,0.719-0.189,1.237h-3.938
	c-0.059,0.188-0.153,0.579-0.153,1.026c0,1.096,0.743,1.344,1.297,1.344c1.167,0,1.487-0.908,1.592-1.215H198.715L198.715,75.236z
	 M198.055,73.422c0.07-0.248,0.105-0.449,0.105-0.709c0-0.789-0.506-1.166-1.119-1.166c-1.191,0-1.664,1.202-1.887,1.875H198.055
	L198.055,73.422z"/>
</svg>
